# xmcd
#
# Track frame offsets: 
#        150
#        20198
#        39564
#        58832
#        84719
#        107136
#        131406
#        155202
#        173914
#        210862
#        229907
#
# Disc length: 3340 seconds
#
# Revision: 0
# Processed by: cddbd v1.5.2PL0 Copyright (c) Steve Scherf et al.
# Submitted via: ExactAudioCopy v1.0b3
#
DISCID=980d0a0b
DTITLE=Corey Stevens - Bring on the Blues
DYEAR=2003
DGENRE=Blues Rock
TTITLE0=Lonesome Road Blues
TTITLE1=Hang On
TTITLE2=Real Love
TTITLE3=You're So Evil
TTITLE4=Crazy and Blue
TTITLE5=My Love for You Has Died
TTITLE6=Triple Jack
TTITLE7=My Blues Are Turning Red
TTITLE8=Something I Can't Do
TTITLE9=You're Gonna Miss Me
TTITLE10=Getaway
EXTD=
EXTT0=
EXTT1=
EXTT2=
EXTT3=
EXTT4=
EXTT5=
EXTT6=
EXTT7=
EXTT8=
EXTT9=
EXTT10=
PLAYORDER=
